<svg width="127" height="30" viewBox="0 0 127 30" fill="none" xmlns="http://www.w3.org/2000/svg">
<path d="M3.10744 12.311L1.69938 8.23252C4.06233 6.84065 6.63567 6.14471 9.41942 6.14471C12.4621 6.14471 14.6794 6.8892 16.0713 8.37818C17.4632 9.86716 18.1591 12.1492 18.1591 15.2242V28.528H13.3037V26.0032C12.009 27.8806 9.8564 28.8193 6.84607 28.8193C4.77445 28.8193 3.10744 28.2204 1.84504 27.0228C0.615014 25.7928 0 24.1581 0 22.1189C0 19.853 0.728305 18.1051 2.18492 16.8751C3.64153 15.6451 5.56749 15.03 7.96281 15.03C9.93733 15.03 11.5882 15.4994 12.9153 16.4381C12.98 14.4959 12.6887 13.0717 12.0413 12.1654C11.4263 11.259 10.3581 10.8059 8.83677 10.8059C7.15358 10.8059 5.2438 11.3076 3.10744 12.311ZM8.69111 24.1096C10.5685 24.1096 11.9766 23.446 12.9153 22.1189V19.8854C12.0089 19.1733 10.7304 18.8172 9.07954 18.8172C8.04373 18.8172 7.20213 19.06 6.55475 19.5455C5.90737 20.0311 5.58368 20.6946 5.58368 21.5362C5.58368 22.3131 5.875 22.9443 6.45764 23.4298C7.04029 23.883 7.78478 24.1096 8.69111 24.1096Z" fill="#470309"/>
<path d="M56.7702 14.2532V28.528H51.1865V15.7098C51.1865 12.926 49.9403 11.5342 47.4478 11.5342C45.3115 11.5342 43.8063 12.3758 42.9323 14.059C42.9323 14.1237 42.9323 14.3827 42.9323 14.8358C42.9647 15.2566 42.9809 15.5318 42.9809 15.6612V28.528H37.3972V15.3214C37.3972 14.1561 37.0735 13.2336 36.4262 12.5538C35.8111 11.874 34.921 11.5342 33.7557 11.5342C31.7164 11.5342 30.1951 12.311 29.1916 13.8647V28.528H23.608V6.67881H29.1916V9.10649C30.8748 7.22908 33.1569 6.29038 36.0377 6.29038C37.6238 6.29038 38.9671 6.61407 40.0677 7.26145C41.2006 7.87646 41.9775 8.71806 42.3983 9.78624C44.1786 7.45566 46.6386 6.29038 49.7784 6.29038C54.4396 6.29038 56.7702 8.94464 56.7702 14.2532Z" fill="#470309"/>
<path d="M94.7389 28.528H89.1552V6.67881H94.7389V8.81517C95.9366 7.13197 97.6036 6.29038 99.7399 6.29038C101.261 6.29038 102.394 6.56551 103.139 7.11579L101.148 12.3596C100.209 11.8093 99.2706 11.5342 98.3319 11.5342C96.7134 11.5342 95.5158 12.311 94.7389 13.8647V28.528Z" fill="#470309"/>
<path d="M123.184 22.4102L124.786 26.343C122.618 28.1557 119.834 29.062 116.435 29.062C112.939 29.062 110.091 28.01 107.89 25.9061C105.753 23.8344 104.685 21.0669 104.685 17.6034C104.685 14.3665 105.737 11.6475 107.841 9.44637C109.945 7.24527 112.745 6.14471 116.241 6.14471C119.122 6.14471 121.566 7.0996 123.572 9.00938C125.579 10.9192 126.583 13.3468 126.583 16.2924C126.583 17.5872 126.469 18.5906 126.243 19.3028H110.463C110.69 20.8888 111.385 22.1351 112.551 23.0414C113.748 23.9477 115.237 24.4009 117.018 24.4009C119.445 24.4009 121.501 23.7373 123.184 22.4102ZM115.998 10.8059C112.826 10.8059 110.916 12.392 110.269 15.5641H120.999C121.031 14.1723 120.578 13.0393 119.64 12.1654C118.733 11.259 117.519 10.8059 115.998 10.8059Z" fill="#470309"/>
<path d="M72.1967 3.88171C82.5088 -6.82 96.7221 6.87589 86.41 17.5776L75.716 28.6756C75.3218 29.0848 74.8508 29.4122 74.3301 29.6393C73.8093 29.8664 73.249 29.9887 72.6809 29.9993C72.1129 30.0098 71.5484 29.9083 71.0196 29.7007C70.4907 29.4931 70.008 29.1833 69.5989 28.7891L58.5008 18.095C47.9523 7.9305 61.6482 -6.28283 72.1967 3.88171Z" fill="url(#paint0_linear_3188_3899)"/>
<defs>
<linearGradient id="paint0_linear_3188_3899" x1="60.8848" y1="19.4956" x2="88.1962" y2="5.67132" gradientUnits="userSpaceOnUse">
<stop stop-color="#FB006A"/>
<stop offset="1" stop-color="#F95700"/>
</linearGradient>
</defs>
</svg>
