<svg width="19" height="18" viewBox="0 0 19 18" fill="none" xmlns="http://www.w3.org/2000/svg">
<path d="M8.75 13.5V15.75C8.75 16.1625 8.4125 16.5 8 16.5C7.5875 16.5 7.25 16.1625 7.25 15.75V13.5H8.75Z" fill="white"/>
<path d="M11.75 13.5V15.75C11.75 16.1625 11.4125 16.5 11 16.5C10.5875 16.5 10.25 16.1625 10.25 15.75V13.5H11.75Z" fill="white"/>
<path d="M13.25 8.25V12C13.25 12.825 12.575 13.5 11.75 13.5H7.25C6.425 13.5 5.75 12.825 5.75 12V8.25C5.75 7.425 6.425 6.75 7.25 6.75H11.75C12.575 6.75 13.25 7.425 13.25 8.25Z" fill="white"/>
<path d="M4.25 8.25V11.25C4.25 11.6625 3.9125 12 3.5 12C3.0875 12 2.75 11.6625 2.75 11.25V8.25C2.75 7.8375 3.0875 7.5 3.5 7.5C3.9125 7.5 4.25 7.8375 4.25 8.25Z" fill="white"/>
<path d="M16.25 8.25V11.25C16.25 11.6625 15.9125 12 15.5 12C15.0875 12 14.75 11.6625 14.75 11.25V8.25C14.75 7.8375 15.0875 7.5 15.5 7.5C15.9125 7.5 16.25 7.8375 16.25 8.25Z" fill="white"/>
<path d="M7.69998 5.7H11.3C11.96 5.7 12.5 5.16 12.5 4.5C12.5 2.8425 11.1575 1.5 9.5 1.5C7.8425 1.5 6.5 2.8425 6.5 4.5C6.5 5.16 7.03998 5.7 7.69998 5.7Z" fill="white"/>
</svg>
