<svg width="24" height="24" viewBox="0 0 24 24" fill="none" xmlns="http://www.w3.org/2000/svg">
<path d="M11 18V21C11 21.55 10.55 22 10 22C9.45 22 9 21.55 9 21V18H11Z" fill="url(#paint0_linear_3188_3456)"/>
<path d="M15 18V21C15 21.55 14.55 22 14 22C13.45 22 13 21.55 13 21V18H15Z" fill="url(#paint1_linear_3188_3456)"/>
<path opacity="0.4" d="M17 11V16C17 17.1 16.1 18 15 18H9C7.9 18 7 17.1 7 16V11C7 9.9 7.9 9 9 9H15C16.1 9 17 9.9 17 11Z" fill="url(#paint2_linear_3188_3456)"/>
<path d="M5 11V15C5 15.55 4.55 16 4 16C3.45 16 3 15.55 3 15V11C3 10.45 3.45 10 4 10C4.55 10 5 10.45 5 11Z" fill="url(#paint3_linear_3188_3456)"/>
<path d="M21 11V15C21 15.55 20.55 16 20 16C19.45 16 19 15.55 19 15V11C19 10.45 19.45 10 20 10C20.55 10 21 10.45 21 11Z" fill="url(#paint4_linear_3188_3456)"/>
<path opacity="0.4" d="M9.59998 7.6H14.4C15.28 7.6 16 6.88 16 6C16 3.79 14.21 2 12 2C9.79 2 8 3.79 8 6C8 6.88 8.71998 7.6 9.59998 7.6Z" fill="url(#paint5_linear_3188_3456)"/>
<defs>
<linearGradient id="paint0_linear_3188_3456" x1="9.3502" y1="20.5994" x2="11.2088" y2="20.1995" gradientUnits="userSpaceOnUse">
<stop stop-color="#FB006A"/>
<stop offset="1" stop-color="#F95700"/>
</linearGradient>
<linearGradient id="paint1_linear_3188_3456" x1="13.3502" y1="20.5994" x2="15.2088" y2="20.1995" gradientUnits="userSpaceOnUse">
<stop stop-color="#FB006A"/>
<stop offset="1" stop-color="#F95700"/>
</linearGradient>
<linearGradient id="paint2_linear_3188_3456" x1="8.751" y1="14.8487" x2="16.6649" y2="11.0644" gradientUnits="userSpaceOnUse">
<stop stop-color="#FB006A"/>
<stop offset="1" stop-color="#F95700"/>
</linearGradient>
<linearGradient id="paint3_linear_3188_3456" x1="3.3502" y1="13.8991" x2="5.25568" y2="13.6258" gradientUnits="userSpaceOnUse">
<stop stop-color="#FB006A"/>
<stop offset="1" stop-color="#F95700"/>
</linearGradient>
<linearGradient id="paint4_linear_3188_3456" x1="19.3502" y1="13.8991" x2="21.2557" y2="13.6258" gradientUnits="userSpaceOnUse">
<stop stop-color="#FB006A"/>
<stop offset="1" stop-color="#F95700"/>
</linearGradient>
<linearGradient id="paint5_linear_3188_3456" x1="9.4008" y1="5.63918" x2="15.0458" y2="2.16858" gradientUnits="userSpaceOnUse">
<stop stop-color="#FB006A"/>
<stop offset="1" stop-color="#F95700"/>
</linearGradient>
</defs>
</svg>
