<svg width="24" height="24" viewBox="0 0 24 24" fill="none" xmlns="http://www.w3.org/2000/svg">
<path opacity="0.4" d="M12 22C17.5228 22 22 17.5228 22 12C22 6.47715 17.5228 2 12 2C6.47715 2 2 6.47715 2 12C2 17.5228 6.47715 22 12 22Z" fill="url(#paint0_linear_3188_3399)"/>
<path d="M15.71 15.9298C15.58 15.9298 15.45 15.8998 15.33 15.8198L12.23 13.9698C11.46 13.5098 10.89 12.4998 10.89 11.6098V7.50977C10.89 7.09977 11.23 6.75977 11.64 6.75977C12.05 6.75977 12.39 7.09977 12.39 7.50977V11.6098C12.39 11.9698 12.69 12.4998 13 12.6798L16.1 14.5298C16.46 14.7398 16.57 15.1998 16.36 15.5598C16.21 15.7998 15.96 15.9298 15.71 15.9298Z" fill="url(#paint1_linear_3188_3399)"/>
<defs>
<linearGradient id="paint0_linear_3188_3399" x1="5.502" y1="14.9971" x2="21.91" y2="7.93568" gradientUnits="userSpaceOnUse">
<stop stop-color="#FB006A"/>
<stop offset="1" stop-color="#F95700"/>
</linearGradient>
<linearGradient id="paint1_linear_3188_3399" x1="11.8664" y1="12.7189" x2="16.9407" y2="11.391" gradientUnits="userSpaceOnUse">
<stop stop-color="#FB006A"/>
<stop offset="1" stop-color="#F95700"/>
</linearGradient>
</defs>
</svg>
