<svg width="24" height="24" viewBox="0 0 24 24" fill="none" xmlns="http://www.w3.org/2000/svg">
<path opacity="0.4" d="M12 22C17.5228 22 22 17.5228 22 12C22 6.47715 17.5228 2 12 2C6.47715 2 2 6.47715 2 12C2 17.5228 6.47715 22 12 22Z" fill="url(#paint0_linear_3188_3893)"/>
<path d="M13.06 11.9999L15.36 9.69986C15.65 9.40986 15.65 8.92986 15.36 8.63986C15.07 8.34986 14.59 8.34986 14.3 8.63986L12 10.9399L9.69998 8.63986C9.40998 8.34986 8.92999 8.34986 8.63999 8.63986C8.34999 8.92986 8.34999 9.40986 8.63999 9.69986L10.94 11.9999L8.63999 14.2999C8.34999 14.5899 8.34999 15.0699 8.63999 15.3599C8.78999 15.5099 8.97999 15.5799 9.16999 15.5799C9.35999 15.5799 9.54998 15.5099 9.69998 15.3599L12 13.0599L14.3 15.3599C14.45 15.5099 14.64 15.5799 14.83 15.5799C15.02 15.5799 15.21 15.5099 15.36 15.3599C15.65 15.0699 15.65 14.5899 15.36 14.2999L13.06 11.9999Z" fill="url(#paint1_linear_3188_3893)"/>
<defs>
<linearGradient id="paint0_linear_3188_3893" x1="5.502" y1="14.9971" x2="21.91" y2="7.93568" gradientUnits="userSpaceOnUse">
<stop stop-color="#FB006A"/>
<stop offset="1" stop-color="#F95700"/>
</linearGradient>
<linearGradient id="paint1_linear_3188_3893" x1="9.67533" y1="13.0737" x2="15.5459" y2="10.5481" gradientUnits="userSpaceOnUse">
<stop stop-color="#FB006A"/>
<stop offset="1" stop-color="#F95700"/>
</linearGradient>
</defs>
</svg>
