<svg width="24" height="24" viewBox="0 0 24 24" fill="none" xmlns="http://www.w3.org/2000/svg">
<path d="M21.2131 9.40144C21.2161 9.45869 21.2121 9.51694 21.1983 9.57481L19.9646 14.7081C19.9024 14.9668 19.6796 15.1486 19.4235 15.15L12.0216 15.1889C12.0206 15.1889 12.0197 15.1889 12.0188 15.1889H4.61682C4.35933 15.1889 4.13495 15.0064 4.07275 14.7465L2.8391 9.59371C2.8249 9.53429 2.82079 9.4744 2.82437 9.41568C2.34714 9.25927 2 8.7947 2 8.24722C2 7.57172 2.52822 7.02222 3.17757 7.02222C3.82692 7.02222 4.35514 7.57172 4.35514 8.24722C4.35514 8.62763 4.18759 8.96799 3.92523 9.19284L5.46976 10.8117C5.86011 11.2209 6.40179 11.4555 6.95596 11.4555C7.61122 11.4555 8.23596 11.1318 8.62938 10.5894L11.1677 7.09067C10.9545 6.869 10.8224 6.56271 10.8224 6.225C10.8224 5.5495 11.3507 5 12 5C12.6493 5 13.1776 5.5495 13.1776 6.225C13.1776 6.5526 13.0526 6.84994 12.8505 7.06998C12.8511 7.07091 12.852 7.07169 12.8526 7.0727L15.3726 10.5811C15.7658 11.1287 16.3928 11.4556 17.0499 11.4556C17.6092 11.4556 18.1351 11.229 18.5305 10.8175L20.0848 9.2007C19.8169 8.97592 19.6449 8.6323 19.6449 8.24722C19.6449 7.57172 20.1731 7.02222 20.8224 7.02222C21.4718 7.02222 22 7.57172 22 8.24722C22 8.78008 21.6707 9.23329 21.2131 9.40144ZM19.8443 17.0167C19.8443 16.6945 19.5932 16.4333 19.2835 16.4333H4.77884C4.46916 16.4333 4.21809 16.6945 4.21809 17.0167V18.4167C4.21809 18.7388 4.46916 19 4.77884 19H19.2835C19.5932 19 19.8443 18.7388 19.8443 18.4167V17.0167Z" fill="white"/>
</svg>
