<svg width="36" height="36" viewBox="0 0 36 36" fill="none" xmlns="http://www.w3.org/2000/svg">
<path d="M13.5 15C15.1569 15 16.5 13.6569 16.5 12C16.5 10.3431 15.1569 9 13.5 9C11.8431 9 10.5 10.3431 10.5 12C10.5 13.6569 11.8431 15 13.5 15Z" stroke="url(#paint0_linear_1815_20707)" stroke-width="1.5" stroke-linecap="round" stroke-linejoin="round"/>
<path d="M19.5 3H13.5C6 3 3 6 3 13.5V22.5C3 30 6 33 13.5 33H22.5C30 33 33 30 33 22.5V15" stroke="url(#paint1_linear_1815_20707)" stroke-width="1.5" stroke-linecap="round" stroke-linejoin="round"/>
<path d="M23.625 7.5H31.875" stroke="url(#paint2_linear_1815_20707)" stroke-width="1.5" stroke-linecap="round"/>
<path d="M27.75 11.625V3.375" stroke="url(#paint3_linear_1815_20707)" stroke-width="1.5" stroke-linecap="round"/>
<path d="M4.00488 28.4248L11.3999 23.4598C12.5849 22.6648 14.2949 22.7548 15.3599 23.6698L15.8549 24.1048C17.0249 25.1098 18.9149 25.1098 20.0849 24.1048L26.3249 18.7498C27.4949 17.7448 29.3849 17.7448 30.5549 18.7498L32.9999 20.8498" stroke="url(#paint4_linear_1815_20707)" stroke-width="1.5" stroke-linecap="round" stroke-linejoin="round"/>
<defs>
<linearGradient id="paint0_linear_1815_20707" x1="11.5506" y1="12.8991" x2="16.473" y2="10.7807" gradientUnits="userSpaceOnUse">
<stop stop-color="#FB006A"/>
<stop offset="1" stop-color="#F95700"/>
</linearGradient>
<linearGradient id="paint1_linear_1815_20707" x1="8.25301" y1="22.4956" x2="32.865" y2="11.9035" gradientUnits="userSpaceOnUse">
<stop stop-color="#FB006A"/>
<stop offset="1" stop-color="#F95700"/>
</linearGradient>
<linearGradient id="paint2_linear_1815_20707" x1="25.0696" y1="8.14985" x2="25.6592" y2="6.05654" gradientUnits="userSpaceOnUse">
<stop stop-color="#FB006A"/>
<stop offset="1" stop-color="#F95700"/>
</linearGradient>
<linearGradient id="paint3_linear_1815_20707" x1="27.9251" y1="8.73629" x2="28.8948" y2="8.68571" gradientUnits="userSpaceOnUse">
<stop stop-color="#FB006A"/>
<stop offset="1" stop-color="#F95700"/>
</linearGradient>
<linearGradient id="paint4_linear_1815_20707" x1="9.08191" y1="24.7733" x2="20.676" y2="10.9006" gradientUnits="userSpaceOnUse">
<stop stop-color="#FB006A"/>
<stop offset="1" stop-color="#F95700"/>
</linearGradient>
</defs>
</svg>
