<svg width="24" height="24" viewBox="0 0 24 24" fill="none" xmlns="http://www.w3.org/2000/svg">
<g clip-path="url(#clip0_1764_20495)">
<path d="M23.9878 7.46095C23.985 7.4414 23.9827 7.42167 23.9788 7.40254C23.9753 7.38436 23.9702 7.36645 23.9656 7.34845C23.9615 7.33195 23.9579 7.31526 23.953 7.29909C23.9476 7.28132 23.9408 7.26398 23.9345 7.24645C23.9287 7.23037 23.9234 7.21415 23.917 7.19845C23.9101 7.18195 23.902 7.16592 23.8943 7.1497C23.8868 7.13362 23.8796 7.11736 23.8714 7.10179C23.8629 7.086 23.8532 7.07081 23.8439 7.05534C23.8349 7.04029 23.8263 7.02492 23.8166 7.01034C23.8048 6.99267 23.7915 6.9757 23.7785 6.95864C23.77 6.94739 23.7622 6.93567 23.7532 6.92475C23.7304 6.89709 23.7063 6.87028 23.6806 6.84445C23.6547 6.81862 23.6278 6.79443 23.6001 6.7717C23.5899 6.76336 23.5789 6.756 23.5684 6.74798C23.5506 6.73439 23.5329 6.72056 23.5144 6.70828C23.5007 6.69918 23.4863 6.69117 23.4723 6.68268C23.4559 6.6727 23.4396 6.66239 23.4228 6.65339C23.4083 6.6457 23.3932 6.63914 23.3784 6.63206C23.361 6.62376 23.3436 6.61504 23.3259 6.60768C23.3118 6.60178 23.2971 6.59704 23.2826 6.59184C23.2634 6.58486 23.2445 6.57759 23.2251 6.57178C23.2111 6.56756 23.1966 6.56451 23.1824 6.56081C23.1622 6.55556 23.1419 6.54998 23.1215 6.54595C23.106 6.5429 23.0901 6.54117 23.0744 6.53873C23.0549 6.53573 23.0356 6.53226 23.016 6.53029C22.9904 6.52781 22.9643 6.52711 22.9384 6.52636C22.9286 6.52612 22.919 6.5249 22.9092 6.5249H19.465C18.8625 6.5249 18.374 7.01334 18.374 7.61582C18.374 8.21831 18.8625 8.70675 19.465 8.70675H20.2757L18.6351 10.3473C17.6002 9.56704 16.3917 9.07054 15.1063 8.89781C15.1064 8.89804 15.1065 8.89832 15.1065 8.89856C14.8993 8.87043 14.6896 8.85028 14.4776 8.83931C14.4748 8.83917 14.4721 8.83893 14.4694 8.83879C14.4141 8.83603 14.3587 8.83406 14.3033 8.83246C14.2936 8.83223 14.2838 8.83167 14.2742 8.83139C14.2097 8.82979 14.1452 8.8289 14.0805 8.8289C14.0082 8.8289 13.9362 8.83012 13.8644 8.83218C13.8484 8.83261 13.8325 8.8335 13.8166 8.83401C13.7578 8.83603 13.6991 8.83861 13.6407 8.84203C13.6286 8.84278 13.6166 8.84357 13.6045 8.84437C13.5371 8.84859 13.4701 8.85361 13.4031 8.85956C13.4016 8.8597 13.4001 8.85979 13.3987 8.85993C13.2316 8.87512 13.0658 8.89645 12.901 8.92246C12.9009 8.9219 12.9008 8.92139 12.9006 8.92078C11.7888 9.09511 10.7563 9.51182 9.85906 10.115C9.85788 10.1158 9.85695 10.1165 9.85577 10.1171C9.80041 10.1543 9.74552 10.1922 9.6912 10.2309C9.01737 10.7082 8.41784 11.297 7.92406 11.9818C7.90985 12.0015 7.89766 12.0219 7.88501 12.0422C7.23199 12.9647 6.77993 14.0389 6.59229 15.2005C6.9146 15.2607 7.24624 15.2936 7.58576 15.2936C8.0133 15.2936 8.4288 15.2422 8.82795 15.1479C9.1272 13.9069 9.85479 12.831 10.8464 12.0879C10.8493 12.0857 10.8524 12.0835 10.8554 12.0813C10.9153 12.0366 10.9765 11.9934 11.0384 11.9512C11.0492 11.9437 11.0598 11.9361 11.0706 11.9288C11.1238 11.893 11.1783 11.8587 11.2329 11.8247C11.265 11.8048 11.2973 11.785 11.3297 11.7658C11.3491 11.7543 11.3687 11.7434 11.3882 11.7321C11.4622 11.6896 11.5368 11.6485 11.6127 11.6096C11.6162 11.6077 11.6197 11.6059 11.6233 11.6041C12.0079 11.4076 12.4158 11.2572 12.838 11.1569C12.9222 11.1369 13.0069 11.1189 13.0923 11.1029C13.1145 11.0988 13.1368 11.0947 13.1591 11.0909C13.2175 11.0807 13.276 11.0716 13.3348 11.0634C13.382 11.0569 13.4295 11.0506 13.4771 11.0452C13.5068 11.0419 13.5365 11.0387 13.5664 11.0358C13.6378 11.029 13.7095 11.0234 13.7816 11.0193C13.7995 11.0183 13.8175 11.0176 13.8354 11.0168C13.9167 11.0132 13.9982 11.0107 14.0804 11.0107C14.1727 11.0107 14.2645 11.013 14.3557 11.0176C14.3689 11.0183 14.3817 11.0197 14.3949 11.0205C14.4741 11.0251 14.5531 11.0307 14.6314 11.0386C14.634 11.0388 14.6366 11.0392 14.6392 11.0395C14.7859 11.0547 14.9306 11.0771 15.0737 11.1037C17.4 11.538 19.2068 13.4661 19.4547 15.8518C19.4552 15.8559 19.4558 15.8598 19.4563 15.8639C19.4641 15.941 19.4695 16.0188 19.4741 16.0968C19.4749 16.111 19.4764 16.1251 19.4772 16.1393C19.4818 16.2299 19.4841 16.3211 19.4842 16.4128C19.4842 16.4133 19.4842 16.4139 19.4842 16.4144C19.4842 16.4144 19.4842 16.4144 19.4842 16.4145C19.4842 17.8579 18.9221 19.2149 17.9015 20.2356C16.8808 21.2563 15.5238 21.8184 14.0804 21.8184C11.4316 21.8184 9.22348 19.9022 8.76537 17.3835C8.38085 17.4438 7.98696 17.4754 7.5858 17.4754C7.2378 17.4754 6.89524 17.4513 6.55957 17.4058C7.04651 21.1216 10.2334 24 14.0803 24C16.1065 24 18.0115 23.2109 19.4442 21.7782C20.8768 20.3454 21.6659 18.4405 21.6659 16.4144V16.4144C21.6659 16.4141 21.6659 16.4138 21.6659 16.4136C21.6659 16.349 21.665 16.2846 21.6635 16.2205C21.6632 16.2117 21.6627 16.2029 21.6625 16.1941C21.6609 16.1376 21.6589 16.0812 21.656 16.0251C21.6559 16.0234 21.6558 16.0219 21.6557 16.0202C21.5792 14.5145 21.0648 13.0899 20.1737 11.8939L21.8182 10.2494V11.06C21.8182 11.6624 22.3067 12.1509 22.9091 12.1509C23.5116 12.1509 24 11.6624 24 11.06V7.61615V7.61573C24 7.57936 23.9981 7.54345 23.9946 7.50801C23.993 7.49231 23.99 7.47665 23.9878 7.46095Z" fill="white"/>
<path d="M17.9014 20.2354C16.8808 21.2561 15.5238 21.8182 14.0804 21.8182C11.4316 21.8182 9.22348 19.902 8.76537 17.3833C8.38085 17.4436 7.98696 17.4752 7.5858 17.4752C7.2378 17.4752 6.89524 17.4511 6.55957 17.4056C7.0466 21.1216 10.2335 24 14.0804 24C16.1066 24 18.0116 23.2109 19.4443 21.7782C20.866 20.3564 21.6535 18.4696 21.6654 16.4608H19.483C19.471 17.8868 18.9111 19.2257 17.9014 20.2354Z" fill="white"/>
<path d="M8.76516 17.3834C11.9936 16.8772 14.5528 14.3273 15.0735 11.1037C14.9304 11.077 14.7857 11.0546 14.639 11.0394C14.6363 11.0392 14.6338 11.0387 14.6312 11.0385C14.553 11.0306 14.474 11.025 14.3947 11.0205C14.3816 11.0197 14.3687 11.0182 14.3555 11.0175C14.2643 11.0129 14.1725 11.0106 14.0802 11.0106C13.998 11.0106 13.9165 11.0131 13.8352 11.0168C13.8172 11.0175 13.7993 11.0182 13.7814 11.0192C13.7092 11.0232 13.6375 11.0289 13.5661 11.0357C13.5364 11.0385 13.5067 11.0417 13.4769 11.0452C13.4293 11.0505 13.3818 11.0567 13.3346 11.0633C13.2758 11.0715 13.2172 11.0807 13.1589 11.0908C13.1365 11.0947 13.1143 11.0987 13.092 11.1028C13.0067 11.1188 12.922 11.1368 12.8378 11.1569C12.3621 13.1286 10.803 14.6812 8.82778 15.1478C8.42864 15.2422 8.01314 15.2936 7.58559 15.2936C7.24613 15.2936 6.91448 15.2606 6.59213 15.2005C4.08567 14.7324 2.1818 12.5299 2.1818 9.88964C2.1818 6.90994 4.60594 4.4858 7.58564 4.4858C10.2344 4.4858 12.4425 6.40195 12.9006 8.92055C12.9007 8.92111 12.9008 8.92163 12.9009 8.92223C13.0658 8.89613 13.2315 8.87489 13.3986 8.8597C13.4001 8.85956 13.4015 8.85947 13.4031 8.85933C13.47 8.85337 13.537 8.84836 13.6044 8.84414C13.6165 8.84334 13.6285 8.84255 13.6406 8.8418C13.6991 8.83847 13.7577 8.83584 13.8165 8.83378C13.8325 8.83327 13.8484 8.83242 13.8643 8.83195C13.936 8.82994 14.0081 8.82867 14.0804 8.82867C14.1451 8.82867 14.2096 8.82956 14.2741 8.83116C14.2838 8.83139 14.2935 8.83195 14.3032 8.83223C14.3587 8.83383 14.414 8.8358 14.4693 8.83856C14.472 8.8387 14.4747 8.83894 14.4775 8.83908C14.6895 8.85005 14.8993 8.8703 15.1064 8.89833C15.1064 8.89809 15.1063 8.89781 15.1063 8.89758C14.9346 7.58883 14.4282 6.38405 13.6758 5.37234L15.3236 3.7245V4.53511C15.3236 5.13759 15.812 5.62603 16.4145 5.62603C17.017 5.62603 17.5054 5.13759 17.5054 4.53511V1.09092C17.5054 1.08403 17.5045 1.07737 17.5044 1.07048C17.5038 1.04137 17.5028 1.01245 17.4999 0.983953C17.4981 0.965109 17.4947 0.9465 17.4919 0.927797C17.4894 0.911344 17.4875 0.894703 17.4843 0.878484C17.4803 0.858281 17.4748 0.838359 17.4697 0.81825C17.4659 0.803859 17.4628 0.789141 17.4585 0.774984C17.4527 0.755484 17.4453 0.7365 17.4384 0.717328C17.4331 0.702984 17.4284 0.688359 17.4226 0.674297C17.4152 0.65625 17.4063 0.638672 17.3979 0.621C17.3909 0.606516 17.3845 0.59175 17.377 0.577641C17.3677 0.560203 17.357 0.543328 17.3467 0.526312C17.3385 0.512859 17.3309 0.499125 17.3223 0.486094C17.309 0.466219 17.2943 0.447188 17.2796 0.428109C17.2726 0.418969 17.2662 0.409266 17.2589 0.400312C17.2361 0.372516 17.2119 0.345469 17.1858 0.3195C17.1599 0.293531 17.1328 0.26925 17.105 0.246469C17.0962 0.239203 17.0865 0.232781 17.0774 0.225797C17.0582 0.211125 17.0391 0.196359 17.0192 0.183094C17.0063 0.174422 16.9927 0.166969 16.9794 0.158859C16.9622 0.148453 16.9452 0.137719 16.9277 0.128297C16.9137 0.120797 16.899 0.114469 16.8847 0.107578C16.8669 0.099 16.8491 0.0901406 16.8309 0.0826406C16.8171 0.076875 16.8026 0.0722344 16.7885 0.0670781C16.7691 0.0600469 16.7498 0.0525937 16.7302 0.0467344C16.7163 0.0425156 16.7019 0.0394687 16.6878 0.0359062C16.6675 0.0306562 16.6472 0.0250781 16.6267 0.021C16.6109 0.0178594 16.5948 0.016125 16.5788 0.0136406C16.5596 0.0107344 16.5406 0.00721875 16.5213 0.00534375C16.4944 0.00271875 16.467 0.001875 16.4395 0.00121875C16.4311 0.00107813 16.4229 0 16.4145 0H12.9701C12.3676 0 11.8792 0.488438 11.8792 1.09092C11.8792 1.69341 12.3676 2.18184 12.9701 2.18184H13.7808L12.1373 3.82533C10.8686 2.87063 9.29208 2.304 7.58559 2.304C3.40289 2.304 0 5.70689 0 9.88959C0 13.7243 2.86031 16.903 6.55936 17.4055C6.89508 17.4511 7.23759 17.4752 7.58559 17.4752C7.98675 17.4752 8.38064 17.4436 8.76516 17.3834Z" fill="white"/>
<path d="M7.58561 4.4858C10.2343 4.4858 12.4424 6.40195 12.9005 8.92055C12.9007 8.92111 12.9008 8.92163 12.9009 8.92223C13.0657 8.89613 13.2315 8.87489 13.3986 8.8597C13.4 8.85956 13.4015 8.85947 13.403 8.85933C13.4699 8.85337 13.537 8.84836 13.6044 8.84414C13.6165 8.84334 13.6285 8.84255 13.6406 8.8418C13.6991 8.83847 13.7577 8.83584 13.8165 8.83378C13.8325 8.83327 13.8484 8.83242 13.8643 8.83195C13.936 8.82994 14.0081 8.82867 14.0804 8.82867C14.1451 8.82867 14.2096 8.82956 14.2741 8.83116C14.2838 8.83139 14.2935 8.83195 14.3032 8.83223C14.3587 8.83383 14.414 8.8358 14.4693 8.83856C14.472 8.8387 14.4747 8.83894 14.4775 8.83908C14.6895 8.85005 14.8993 8.8703 15.1064 8.89833C15.1064 8.89809 15.1063 8.89781 15.1062 8.89758C14.9346 7.58883 14.4281 6.38405 13.6758 5.37234L15.3236 3.7245V4.53511C15.3236 5.13759 15.812 5.62603 16.4145 5.62603C17.017 5.62603 17.5054 5.13759 17.5054 4.53511V1.09092C17.5054 1.08403 17.5045 1.07733 17.5044 1.07048C17.5038 1.04137 17.5028 1.01245 17.4999 0.983953C17.4981 0.965109 17.4947 0.9465 17.4918 0.927797C17.4894 0.911344 17.4875 0.894703 17.4843 0.878484C17.4803 0.858281 17.4748 0.838359 17.4696 0.81825C17.4658 0.803859 17.4628 0.789141 17.4585 0.774984C17.4527 0.755484 17.4453 0.7365 17.4384 0.717328C17.4331 0.702984 17.4284 0.688359 17.4226 0.674297C17.4152 0.65625 17.4063 0.638672 17.3979 0.621C17.3909 0.606516 17.3845 0.59175 17.377 0.577641C17.3676 0.560203 17.357 0.543328 17.3467 0.526312C17.3385 0.512859 17.3309 0.499125 17.3223 0.486094C17.3089 0.466312 17.2943 0.447188 17.2796 0.428109C17.2726 0.418969 17.2662 0.409266 17.2588 0.400312C17.2361 0.372516 17.2119 0.345469 17.1858 0.3195C17.1598 0.293531 17.1328 0.26925 17.105 0.246469C17.0961 0.239203 17.0865 0.232781 17.0773 0.225797C17.0582 0.211125 17.0391 0.196359 17.0192 0.183094C17.0063 0.174422 16.9927 0.166969 16.9794 0.158859C16.9622 0.148453 16.9452 0.137719 16.9277 0.128297C16.9137 0.120797 16.899 0.114469 16.8847 0.107578C16.8669 0.099 16.8491 0.0901406 16.8309 0.0826406C16.817 0.076875 16.8026 0.0722344 16.7884 0.0670781C16.769 0.0600469 16.7498 0.0525937 16.7302 0.0467344C16.7163 0.0425156 16.7019 0.0394687 16.6878 0.0359062C16.6675 0.0306562 16.6472 0.0250781 16.6267 0.021C16.6109 0.0178594 16.5948 0.016125 16.5788 0.0136406C16.5596 0.0107344 16.5406 0.00721875 16.5213 0.00534375C16.4944 0.00271875 16.467 0.001875 16.4395 0.00121875C16.4311 0.00107813 16.4228 0 16.4144 0H12.97C12.3675 0 11.8791 0.488438 11.8791 1.09092C11.8791 1.69341 12.3675 2.18184 12.97 2.18184H13.7807L12.1372 3.82533C10.8686 2.87063 9.292 2.304 7.58552 2.304C3.41838 2.304 0.0257539 5.68167 0.000488281 9.84305H2.18289C2.20816 6.88481 4.62152 4.4858 7.58561 4.4858Z" fill="white"/>
</g>
<defs>
<clipPath id="clip0_1764_20495">
<rect width="24" height="24" fill="white"/>
</clipPath>
</defs>
</svg>
