<svg width="28" height="28" viewBox="0 0 28 28" fill="none" xmlns="http://www.w3.org/2000/svg">
<path opacity="0.4" d="M25.6668 9.11165V16.2166L23.7652 14.5833C22.8552 13.8016 21.3852 13.8016 20.4752 14.5833L15.6218 18.7483C14.7118 19.53 13.2418 19.53 12.3318 18.7483L11.9352 18.4216C11.1068 17.6983 9.7885 17.6283 8.85516 18.2583L3.11516 22.1083L2.98683 22.2016C2.55516 21.2683 2.3335 20.16 2.3335 18.8883V9.11165C2.3335 4.86498 4.86516 2.33331 9.11183 2.33331H18.8885C23.1352 2.33331 25.6668 4.86498 25.6668 9.11165Z" fill="url(#paint0_linear_1768_18235)"/>
<path d="M10.4998 12.11C12.0333 12.11 13.2765 10.8668 13.2765 9.33331C13.2765 7.7998 12.0333 6.55664 10.4998 6.55664C8.9663 6.55664 7.72314 7.7998 7.72314 9.33331C7.72314 10.8668 8.9663 12.11 10.4998 12.11Z" fill="url(#paint1_linear_1768_18235)"/>
<path d="M25.6668 16.2167V18.8883C25.6668 23.135 23.1351 25.6667 18.8885 25.6667H9.11182C6.13682 25.6667 3.99015 24.4183 2.98682 22.2017L3.11515 22.1083L8.85515 18.2583C9.78848 17.6283 11.1068 17.6983 11.9351 18.4217L12.3318 18.7483C13.2418 19.53 14.7118 19.53 15.6218 18.7483L20.4751 14.5833C21.3851 13.8017 22.8551 13.8017 23.7651 14.5833L25.6668 16.2167Z" fill="url(#paint2_linear_1768_18235)"/>
<defs>
<linearGradient id="paint0_linear_1768_18235" x1="6.41917" y1="15.2448" x2="24.4909" y2="6.11105" gradientUnits="userSpaceOnUse">
<stop stop-color="#FB006A"/>
<stop offset="1" stop-color="#F95700"/>
</linearGradient>
<linearGradient id="paint1_linear_1768_18235" x1="8.69553" y1="10.1655" x2="13.2515" y2="8.20478" gradientUnits="userSpaceOnUse">
<stop stop-color="#FB006A"/>
<stop offset="1" stop-color="#F95700"/>
</linearGradient>
<linearGradient id="paint2_linear_1768_18235" x1="6.95809" y1="21.5806" x2="19.9335" y2="10.7278" gradientUnits="userSpaceOnUse">
<stop stop-color="#FB006A"/>
<stop offset="1" stop-color="#F95700"/>
</linearGradient>
</defs>
</svg>
