<svg width="24" height="24" viewBox="0 0 24 24" fill="none" xmlns="http://www.w3.org/2000/svg">
<g clip-path="url(#clip0_1764_20533)">
<path opacity="0.4" d="M8.08604 15.5625H1.75323C1.28448 15.5625 0.857917 15.2812 0.679792 14.8453C0.501667 14.4094 0.600105 13.9125 0.932917 13.5797L5.39542 9.11718H1.95479C1.3126 9.11718 0.792292 8.59686 0.792292 7.95468C0.792292 7.31249 1.3126 6.79218 1.95479 6.79218H8.19854C8.66729 6.79218 9.09385 7.07343 9.27198 7.50936C9.45479 7.9453 9.35167 8.44218 9.01885 8.77499L4.55635 13.2375H8.08604C8.72823 13.2375 9.24854 13.7578 9.24854 14.4C9.24854 15.0422 8.73292 15.5625 8.08604 15.5625Z" fill="#C19696"/>
<path d="M16.9408 5.93437H12.8205C12.469 5.93437 12.1502 5.72344 12.0143 5.39531C11.8783 5.06719 11.9533 4.69688 12.2018 4.44375L14.9065 1.73906H12.9518C12.469 1.73906 12.0799 1.35 12.0799 0.867188C12.0799 0.384375 12.4737 0 12.9565 0H17.0158C17.3674 0 17.6862 0.210938 17.8221 0.539062C17.958 0.867188 17.883 1.24219 17.6346 1.49062L14.9299 4.19531H16.9455C17.4283 4.19531 17.8174 4.58437 17.8174 5.06719C17.8174 5.55 17.4237 5.93437 16.9408 5.93437Z" fill="#C19696"/>
<path d="M21.5109 23.8031H12.9422C12.239 23.8031 11.6015 23.3765 11.3297 22.725C11.0578 22.0734 11.2078 21.3234 11.7093 20.8219L17.4468 15.0844H13.214C12.2531 15.0844 11.4703 14.3016 11.4703 13.3406C11.4703 12.3797 12.2531 11.5969 13.214 11.5969H21.6609C22.364 11.5969 23.0015 12.0234 23.2734 12.675C23.5453 13.3266 23.3953 14.0766 22.8937 14.5781L17.1562 20.3156H21.5109C22.4718 20.3156 23.2547 21.0984 23.2547 22.0594C23.2547 23.0203 22.4718 23.8031 21.5109 23.8031Z" fill="#C19696"/>
</g>
<defs>
<clipPath id="clip0_1764_20533">
<rect width="24" height="24" fill="white"/>
</clipPath>
</defs>
</svg>
