<svg width="24" height="24" viewBox="0 0 24 24" fill="none" xmlns="http://www.w3.org/2000/svg">
<g clip-path="url(#clip0_1764_20522)">
<path d="M16.5422 1.61414C14.8341 1.61414 13.2586 2.19173 12 3.16139C12.5741 3.6037 13.0823 4.12743 13.5069 4.71548C14.3681 4.11365 15.4143 3.75928 16.5423 3.75928C19.4717 3.75928 21.855 6.14259 21.855 9.07209C21.855 12.0015 19.4717 14.3848 16.5423 14.3848C15.4143 14.3848 14.3681 14.0303 13.5069 13.4286C12.9006 13.0048 12.3855 12.4588 12 11.8252C11.5112 11.0218 11.2295 10.0792 11.2295 9.07209C11.2295 8.06493 11.5111 7.12232 12 6.31893C11.6145 5.68537 11.0994 5.13937 10.493 4.71553C9.60722 5.94201 9.08447 7.44703 9.08447 9.07214C9.08447 10.6972 9.60732 12.2022 10.493 13.4286C10.9176 14.0167 11.4259 14.5404 12 14.9826C12.9904 15.7454 14.1768 16.2653 15.4697 16.4523V17.8464H14.1478C13.5555 17.8464 13.0753 18.3266 13.0753 18.9189C13.0753 19.5112 13.5555 19.9915 14.1478 19.9915H15.4697V21.3134C15.4697 21.9057 15.9499 22.3859 16.5423 22.3859C17.1346 22.3859 17.6148 21.9058 17.6148 21.3134V19.9915H18.9368C19.5291 19.9915 20.0093 19.5113 20.0093 18.9189C20.0093 18.3266 19.5291 17.8464 18.9368 17.8464H17.6148V16.4523C21.2206 15.9307 24 12.8201 24 9.07199C24 4.9597 20.6544 1.61414 16.5422 1.61414Z" fill="#C19696"/>
<path d="M10.493 13.4285C9.63192 14.0302 8.58577 14.3847 7.45786 14.3847C4.52836 14.3847 2.14505 12.0014 2.14505 9.07199C2.14505 6.1425 4.52836 3.75918 7.45786 3.75918C8.58581 3.75918 9.63192 4.11356 10.493 4.71539C11.0995 5.13918 11.6146 5.68518 12 6.31879C12.4888 7.12218 12.7704 8.06479 12.7704 9.07195C12.7704 10.0791 12.4888 11.0217 12 11.8251C12.3855 12.4587 12.9007 13.0047 13.507 13.4285C14.3927 12.2021 14.9155 10.697 14.9155 9.07199C14.9155 7.44689 14.3926 5.94192 13.507 4.71548C13.0823 4.12743 12.5742 3.6037 12 3.16139C10.7413 2.19173 9.16589 1.61414 7.45786 1.61414C3.34556 1.61414 0 4.9597 0 9.07199C0 12.82 2.77936 15.9305 6.38517 16.4523V17.8463H5.06325C4.47094 17.8463 3.9907 18.3265 3.9907 18.9189C3.9907 19.5112 4.47089 19.9914 5.06325 19.9914H6.38517V21.3134C6.38517 21.9057 6.86536 22.3859 7.45772 22.3859C8.05003 22.3859 8.53027 21.9057 8.53027 21.3134V19.9914H9.85219C10.4445 19.9914 10.9247 19.5112 10.9247 18.9189C10.9247 18.3265 10.4445 17.8463 9.85219 17.8463H8.53027V16.4523C9.82317 16.2652 11.0097 15.7454 12 14.9825C11.4259 14.5402 10.9177 14.0165 10.493 13.4285Z" fill="#C19696"/>
<path d="M12 3.16139C10.7413 2.19173 9.16589 1.61414 7.45786 1.61414C3.34556 1.61414 0 4.9597 0 9.07195H2.14505C2.14505 6.14254 4.52836 3.75923 7.45786 3.75923C8.58581 3.75923 9.63192 4.11365 10.493 4.71543C11.0995 5.13923 11.6146 5.68523 12 6.31884C12.4888 7.12223 12.7704 8.06479 12.7704 9.07195H14.9155C14.9155 7.44693 14.3926 5.94187 13.507 4.71548C13.0823 4.12743 12.5742 3.6036 12 3.16139Z" fill="#C19696"/>
<path d="M11.2295 9.07199C11.2295 8.06483 11.5111 7.12222 12 6.31883C11.6145 5.68527 11.0994 5.13917 10.493 4.71542C9.60722 5.94191 9.08447 7.44692 9.08447 9.07203C9.08447 9.09477 9.0856 9.11731 9.08583 9.13995H11.2307C11.2304 9.11727 11.2295 9.09472 11.2295 9.07199Z" fill="#C19696"/>
<path d="M16.5423 1.61414C14.8342 1.61414 13.2587 2.19173 12 3.16139C12.5742 3.6037 13.0823 4.12743 13.507 4.71548C14.3682 4.11365 15.4144 3.75923 16.5423 3.75923C19.4717 3.75923 21.855 6.14254 21.855 9.07204C21.855 9.09487 21.8536 9.11732 21.8533 9.13996H23.9993C23.9995 9.11728 24 9.09468 24 9.07204C24 4.9597 20.6545 1.61414 16.5423 1.61414Z" fill="#C19696"/>
</g>
<defs>
<clipPath id="clip0_1764_20522">
<rect width="24" height="24" fill="white"/>
</clipPath>
</defs>
</svg>
