<svg width="24" height="24" viewBox="0 0 24 24" fill="none" xmlns="http://www.w3.org/2000/svg">
<path d="M20.7536 8.43893C21.442 8.43893 22 7.87992 22 7.19041V3.24888V3.24837C22 3.20673 21.9978 3.16565 21.9939 3.12511C21.9921 3.10722 21.9886 3.08938 21.9861 3.0715C21.9829 3.04912 21.9802 3.02646 21.9758 3.00443C21.9718 2.98369 21.9659 2.96323 21.9608 2.94268C21.956 2.92378 21.9519 2.90465 21.9462 2.88598C21.9401 2.86575 21.9325 2.84595 21.9252 2.82588C21.9187 2.80749 21.9126 2.78874 21.9051 2.77078C21.8973 2.75196 21.8881 2.73365 21.8794 2.71518C21.8707 2.69679 21.8625 2.67805 21.853 2.66016C21.8433 2.6422 21.8322 2.62479 21.8216 2.60714C21.8112 2.58992 21.8015 2.57228 21.7903 2.55553C21.7768 2.5353 21.7616 2.51589 21.7469 2.49636C21.7371 2.48345 21.7282 2.46999 21.718 2.45759C21.692 2.42597 21.6644 2.39525 21.635 2.36571C21.6055 2.33617 21.5746 2.30854 21.543 2.28248C21.5311 2.27274 21.5184 2.26417 21.5062 2.25485C21.4861 2.23944 21.4659 2.22382 21.445 2.20982C21.4293 2.19925 21.4125 2.18994 21.3961 2.18012C21.3776 2.16896 21.3593 2.15722 21.3404 2.14717C21.3236 2.13817 21.3061 2.13042 21.2887 2.1222C21.2693 2.11289 21.2497 2.10307 21.2298 2.09481C21.2133 2.08789 21.1961 2.08241 21.1792 2.07619C21.1578 2.06844 21.1364 2.06022 21.1147 2.05365C21.0983 2.04864 21.0813 2.045 21.0645 2.04073C21.042 2.0349 21.0193 2.02856 20.9965 2.0241C20.9779 2.02043 20.9588 2.01835 20.94 2.01546C20.9186 2.01221 20.8974 2.0083 20.8759 2.00622C20.8447 2.00313 20.8129 2.00215 20.781 2.00141C20.7718 2.00125 20.7629 2 20.7537 2H16.8185C16.1302 2 15.5721 2.55901 15.5721 3.24852C15.5721 3.93803 16.1302 4.49705 16.8185 4.49705H17.7448L15.867 6.37807C14.4175 5.28532 12.6163 4.63682 10.6666 4.63682C5.88785 4.63682 2 8.53139 2 13.3184C2 18.1054 5.88785 22 10.6667 22C15.4454 22 19.3332 18.1054 19.3332 13.3184C19.3332 11.3831 18.6975 9.59381 17.6247 8.14859L19.5073 6.26263V7.19037C19.5073 7.88 20.0653 8.43893 20.7536 8.43893ZM10.6667 19.503C7.26234 19.503 4.49273 16.7286 4.49273 13.3184C4.49273 9.90819 7.26234 7.13379 10.6667 7.13379C14.0709 7.13379 16.8404 9.90819 16.8404 13.3184C16.8404 16.7286 14.0709 19.503 10.6667 19.503Z" fill="white"/>
<path opacity="0.4" d="M10.5001 22C15.187 22 19 17.9949 19 13.072C19 13.0478 18.9988 13.0241 18.9986 13H16.5535C16.5537 13.0241 16.5552 13.0478 16.5552 13.072C16.5552 16.5789 13.8389 19.4321 10.5001 19.4321C7.16122 19.4321 4.44485 16.579 4.44485 13.072C4.44485 13.0478 4.44631 13.0241 4.44658 13H2.00088C2.00065 13.0241 2 13.0479 2 13.072C2 17.995 5.81311 22 10.5001 22Z" fill="white"/>
</svg>
