<svg width="70" height="70" viewBox="0 0 70 70" fill="none" xmlns="http://www.w3.org/2000/svg">
<rect width="70" height="70" rx="35" fill="url(#paint0_linear_1772_18869)"/>
<path d="M37.963 34.9965L44.392 28.5697C45.2027 27.7593 45.2027 26.4181 44.392 25.6078C43.5814 24.7974 42.2397 24.7974 41.4291 25.6078L35 32.0346L28.5709 25.6078C27.7603 24.7974 26.4186 24.7974 25.608 25.6078C24.7973 26.4181 24.7973 27.7593 25.608 28.5697L32.037 34.9965L25.608 41.4233C24.7973 42.2337 24.7973 43.5749 25.608 44.3853C26.0273 44.8044 26.5584 45 27.0894 45C27.6205 45 28.1516 44.8044 28.5709 44.3853L35 37.9584L41.4291 44.3853C41.8484 44.8044 42.3795 45 42.9106 45C43.4417 45 43.9727 44.8044 44.392 44.3853C45.2027 43.5749 45.2027 42.2337 44.392 41.4233L37.963 34.9965Z" fill="white"/>
<defs>
<linearGradient id="paint0_linear_1772_18869" x1="12.257" y1="45.4898" x2="69.685" y2="20.7749" gradientUnits="userSpaceOnUse">
<stop stop-color="#FB006A"/>
<stop offset="1" stop-color="#F95700"/>
</linearGradient>
</defs>
</svg>
