<svg width="32" height="32" viewBox="0 0 32 32" fill="none" xmlns="http://www.w3.org/2000/svg">
<path opacity="0.4" d="M28.3333 12.1999C25.2533 7.35991 20.7467 4.57324 16 4.57324C13.6267 4.57324 11.32 5.26658 9.21332 6.55991C7.10666 7.86658 5.21332 9.77324 3.66666 12.1999C2.33332 14.2932 2.33332 17.6932 3.66666 19.7866C6.74666 24.6399 11.2533 27.4132 16 27.4132C18.3733 27.4132 20.68 26.7199 22.7867 25.4266C24.8933 24.1199 26.7867 22.2132 28.3333 19.7866C29.6667 17.7066 29.6667 14.2932 28.3333 12.1999ZM16 21.3866C13.0133 21.3866 10.6133 18.9732 10.6133 15.9999C10.6133 13.0266 13.0133 10.6132 16 10.6132C18.9867 10.6132 21.3867 13.0266 21.3867 15.9999C21.3867 18.9732 18.9867 21.3866 16 21.3866Z" fill="#C19696"/>
<path d="M16 12.1865C13.9067 12.1865 12.2 13.8932 12.2 15.9999C12.2 18.0932 13.9067 19.7999 16 19.7999C18.0933 19.7999 19.8133 18.0932 19.8133 15.9999C19.8133 13.9065 18.0933 12.1865 16 12.1865Z" fill="#C19696"/>
</svg>
