<svg width="32" height="32" viewBox="0 0 32 32" fill="none" xmlns="http://www.w3.org/2000/svg">
<path opacity="0.4" d="M26.04 7.37317L7.37332 26.0398C7.34666 26.0665 7.33332 26.0798 7.30666 26.0932C6.79999 25.6665 6.33332 25.1998 5.90666 24.6932C3.87999 22.3598 2.66666 19.3198 2.66666 15.9998C2.66666 8.63984 8.63999 2.6665 16 2.6665C19.32 2.6665 22.36 3.87984 24.6933 5.9065C25.2 6.33317 25.6667 6.79984 26.0933 7.3065C26.08 7.33317 26.0667 7.3465 26.04 7.37317Z" fill="#C19696"/>
<path opacity="0.4" d="M29.3333 15.9998C29.3333 23.3598 23.36 29.3331 16 29.3331C13.3467 29.3331 10.88 28.5598 8.79999 27.1998L27.2 8.7998C28.56 10.8798 29.3333 13.3465 29.3333 15.9998Z" fill="#C19696"/>
<path d="M29.0267 2.97334C28.6267 2.57334 27.9733 2.57334 27.5733 2.97334L2.97334 27.5867C2.57334 27.9867 2.57334 28.64 2.97334 29.04C3.17334 29.2267 3.42667 29.3333 3.69334 29.3333C3.96001 29.3333 4.21334 29.2267 4.41334 29.0267L29.0267 4.41334C29.44 4.01334 29.44 3.37334 29.0267 2.97334Z" fill="#C19696"/>
</svg>
