<svg width="32" height="32" viewBox="0 0 32 32" fill="none" xmlns="http://www.w3.org/2000/svg">
<path opacity="0.4" d="M26.0398 7.37342L7.37317 26.0401C7.3465 26.0668 7.33317 26.0801 7.3065 26.0934C6.79984 25.6668 6.33317 25.2001 5.9065 24.6934C3.87984 22.3601 2.6665 19.3201 2.6665 16.0001C2.6665 8.64008 8.63984 2.66675 15.9998 2.66675C19.3198 2.66675 22.3598 3.88008 24.6932 5.90675C25.1998 6.33341 25.6665 6.80008 26.0932 7.30675C26.0798 7.33342 26.0665 7.34675 26.0398 7.37342Z" fill="url(#paint0_linear_3501_8995)"/>
<path opacity="0.4" d="M29.3331 16C29.3331 23.36 23.3598 29.3334 15.9998 29.3334C13.3465 29.3334 10.8798 28.56 8.7998 27.2L27.1998 8.80005C28.5598 10.88 29.3331 13.3467 29.3331 16Z" fill="url(#paint1_linear_3501_8995)"/>
<path d="M29.0267 2.97334C28.6267 2.57334 27.9733 2.57334 27.5733 2.97334L2.97334 27.5867C2.57334 27.9867 2.57334 28.64 2.97334 29.04C3.17334 29.2267 3.42667 29.3333 3.69334 29.3333C3.96001 29.3333 4.21334 29.2267 4.41334 29.0267L29.0267 4.41334C29.44 4.01334 29.44 3.37334 29.0267 2.97334Z" fill="url(#paint2_linear_3501_8995)"/>
<defs>
<linearGradient id="paint0_linear_3501_8995" x1="6.76852" y1="17.8907" x2="25.9878" y2="9.61941" gradientUnits="userSpaceOnUse">
<stop stop-color="#FB006A"/>
<stop offset="1" stop-color="#F95700"/>
</linearGradient>
<linearGradient id="paint1_linear_3501_8995" x1="12.3952" y1="22.1437" x2="29.2407" y2="14.894" gradientUnits="userSpaceOnUse">
<stop stop-color="#FB006A"/>
<stop offset="1" stop-color="#F95700"/>
</linearGradient>
<linearGradient id="paint2_linear_3501_8995" x1="7.34209" y1="19.9984" x2="29.2158" y2="10.5836" gradientUnits="userSpaceOnUse">
<stop stop-color="#FB006A"/>
<stop offset="1" stop-color="#F95700"/>
</linearGradient>
</defs>
</svg>
