<svg width="32" height="32" viewBox="0 0 32 32" fill="none" xmlns="http://www.w3.org/2000/svg">
<path d="M28.0932 6.97341C25.9466 6.76008 23.7999 6.60008 21.6399 6.48008V6.46675L21.3466 4.73341C21.1466 3.50675 20.8532 1.66675 17.7332 1.66675H14.2399C11.1332 1.66675 10.8399 3.42675 10.6266 4.72008L10.3466 6.42675C9.10655 6.50675 7.86655 6.58675 6.62655 6.70675L3.90655 6.97341C3.34655 7.02675 2.94655 7.52008 2.99988 8.06675C3.05322 8.61342 3.53322 9.01341 4.09322 8.96008L6.81322 8.69341C13.7999 8.00008 20.8399 8.26675 27.9066 8.97341C27.9466 8.97341 27.9732 8.97341 28.0132 8.97341C28.5199 8.97341 28.9599 8.58675 29.0132 8.06675C29.0532 7.52008 28.6532 7.02675 28.0932 6.97341Z" fill="#C19696"/>
<path opacity="0.3991" d="M25.6401 10.8533C25.3201 10.5199 24.8801 10.3333 24.4267 10.3333H7.57341C7.12007 10.3333 6.66674 10.5199 6.36007 10.8533C6.05341 11.1866 5.88007 11.6399 5.90674 12.1066L6.73341 25.7866C6.88007 27.8133 7.06674 30.3466 11.7201 30.3466H20.2801C24.9334 30.3466 25.1201 27.8266 25.2667 25.7866L26.0934 12.1199C26.1201 11.6399 25.9467 11.1866 25.6401 10.8533Z" fill="#C19696"/>
<path fill-rule="evenodd" clip-rule="evenodd" d="M12.7734 22.6667C12.7734 22.1145 13.2212 21.6667 13.7734 21.6667H18.2134C18.7657 21.6667 19.2134 22.1145 19.2134 22.6667C19.2134 23.219 18.7657 23.6667 18.2134 23.6667H13.7734C13.2212 23.6667 12.7734 23.219 12.7734 22.6667Z" fill="#C19696"/>
<path fill-rule="evenodd" clip-rule="evenodd" d="M11.6667 17.3333C11.6667 16.781 12.1145 16.3333 12.6667 16.3333H19.3334C19.8857 16.3333 20.3334 16.781 20.3334 17.3333C20.3334 17.8855 19.8857 18.3333 19.3334 18.3333H12.6667C12.1145 18.3333 11.6667 17.8855 11.6667 17.3333Z" fill="#C19696"/>
</svg>
