<svg width="18" height="18" viewBox="0 0 18 18" fill="none" xmlns="http://www.w3.org/2000/svg">
<path d="M15.803 3.92299C14.5955 3.80299 13.388 3.71299 12.173 3.64549V3.63799L12.008 2.66299C11.8955 1.97299 11.7305 0.937988 9.97548 0.937988H8.01048C6.26298 0.937988 6.09798 1.92799 5.97798 2.65549L5.82048 3.61549C5.12298 3.66049 4.42548 3.70549 3.72798 3.77299L2.19798 3.92299C1.88298 3.95299 1.65798 4.23049 1.68798 4.53799C1.71798 4.84549 1.98798 5.07049 2.30298 5.04049L3.83298 4.89049C7.76298 4.50049 11.723 4.65049 15.698 5.04799C15.7205 5.04799 15.7355 5.04799 15.758 5.04799C16.043 5.04799 16.2905 4.83049 16.3205 4.53799C16.343 4.23049 16.118 3.95299 15.803 3.92299Z" fill="white"/>
<path opacity="0.3991" d="M14.4216 6.10451C14.2416 5.91701 13.9941 5.81201 13.7391 5.81201H4.25908C4.00408 5.81201 3.74908 5.91701 3.57658 6.10451C3.40408 6.29201 3.30658 6.54701 3.32158 6.80951L3.78658 14.5045C3.86908 15.6445 3.97408 17.0695 6.59158 17.0695H11.4066C14.0241 17.0695 14.1291 15.652 14.2116 14.5045L14.6766 6.81701C14.6916 6.54701 14.5941 6.29201 14.4216 6.10451Z" fill="white"/>
<path fill-rule="evenodd" clip-rule="evenodd" d="M7.18506 12.7505C7.18506 12.4398 7.4369 12.188 7.74756 12.188H10.2451C10.5557 12.188 10.8076 12.4398 10.8076 12.7505C10.8076 13.0611 10.5557 13.313 10.2451 13.313H7.74756C7.4369 13.313 7.18506 13.0611 7.18506 12.7505Z" fill="white"/>
<path fill-rule="evenodd" clip-rule="evenodd" d="M6.56323 9.74951C6.56323 9.43885 6.81507 9.18701 7.12573 9.18701H10.8757C11.1864 9.18701 11.4382 9.43885 11.4382 9.74951C11.4382 10.0602 11.1864 10.312 10.8757 10.312H7.12573C6.81507 10.312 6.56323 10.0602 6.56323 9.74951Z" fill="white"/>
</svg>
