<svg width="24" height="24" viewBox="0 0 24 24" fill="none" xmlns="http://www.w3.org/2000/svg">
<g clip-path="url(#clip0_1764_20470)">
<path d="M20.6169 8.61689C20.6169 3.8655 16.7513 0 12.0001 0C7.24875 0 3.3833 3.8655 3.3833 8.61689C3.3833 12.9474 6.59466 16.5415 10.7609 17.1442V18.755H9.23363C8.54925 18.755 7.99439 19.3098 7.99439 19.9942C7.99439 20.6786 8.54925 21.2334 9.23363 21.2334H10.7609L10.761 22.7609C10.761 23.4453 11.3159 24 12.0002 24C12.6846 24 13.2395 23.4452 13.2395 22.7608L13.2394 21.2334H14.7667C15.451 21.2334 16.0059 20.6786 16.0059 19.9942C16.0059 19.3098 15.451 18.755 14.7667 18.755H13.2394V17.1442C17.4055 16.5416 20.6169 12.9474 20.6169 8.61689ZM12.0001 14.7553C8.61535 14.7553 5.86163 12.0016 5.86163 8.61689C5.86172 5.23209 8.61539 2.47842 12.0001 2.47842C15.3847 2.47842 18.1385 5.23214 18.1385 8.61689C18.1385 12.0016 15.3848 14.7553 12.0001 14.7553Z" fill="white"/>
<path d="M20.6169 8.61689C20.6169 3.8655 16.7513 0 12.0001 0C7.24875 0 3.3833 3.8655 3.3833 8.61689C3.3833 12.9474 6.59466 16.5415 10.7609 17.1442V18.755H9.23363C8.54925 18.755 7.99439 19.3098 7.99439 19.9942C7.99439 20.6786 8.54925 21.2334 9.23363 21.2334H10.7609L10.761 22.7609C10.761 23.4453 11.3159 24 12.0002 24C12.6846 24 13.2395 23.4452 13.2395 22.7608L13.2394 21.2334H14.7667C15.451 21.2334 16.0059 20.6786 16.0059 19.9942C16.0059 19.3098 15.451 18.755 14.7667 18.755H13.2394V17.1442C17.4055 16.5416 20.6169 12.9474 20.6169 8.61689ZM12.0001 14.7553C8.61535 14.7553 5.86163 12.0016 5.86163 8.61689C5.86172 5.23209 8.61539 2.47842 12.0001 2.47842C15.3847 2.47842 18.1385 5.23214 18.1385 8.61689C18.1385 12.0016 15.3848 14.7553 12.0001 14.7553Z" fill="white"/>
<path d="M12.0001 0C7.24885 0 3.3833 3.8655 3.3833 8.61689C3.3833 8.65805 3.38414 8.69892 3.38471 8.73989H5.86486C5.86402 8.69883 5.86172 8.65809 5.86172 8.61689C5.86172 5.23209 8.61544 2.47842 12.0001 2.47842C15.3847 2.47842 18.1385 5.23214 18.1385 8.61689C18.1385 8.65809 18.1362 8.69883 18.1353 8.73989H20.6155C20.6161 8.69892 20.6169 8.65795 20.6169 8.61689C20.6169 3.8655 16.7513 0 12.0001 0Z" fill="white"/>
</g>
<defs>
<clipPath id="clip0_1764_20470">
<rect width="24" height="24" fill="white"/>
</clipPath>
</defs>
</svg>
